<?xml version="1.0" encoding="utf-8"?>
<!-- Generator: Adobe Illustrator 15.0.0, SVG Export Plug-In . SVG Version: 6.00 Build 0)  -->
<!DOCTYPE svg PUBLIC "-//W3C//DTD SVG 1.1//EN" "http://www.w3.org/Graphics/SVG/1.1/DTD/svg11.dtd">
<svg version="1.1" id="Layer_1" xmlns="http://www.w3.org/2000/svg" xmlns:xlink="http://www.w3.org/1999/xlink" x="0px" y="0px"
	 width="500px" height="500px" viewBox="0 0 500 500" enable-background="new 0 0 500 500" xml:space="preserve">
<polygon fill="none" stroke="#1D93D1" stroke-width="21.0527" stroke-miterlimit="10" points="49.444,32.85 249.444,132.85 
	449.444,32.85 449.444,372.85 249.444,472.85 49.444,372.85 "/>
<g>
	<polygon fill="#1D93D1" points="198.244,410.905 138.141,259.747 157.387,251.216 227.49,426.374 	"/>
</g>
<g>
	<path fill="#1D93D1" d="M100.761,364.112l-21.053-10V83.763l147.369,75.221v150.534l-126.316-67.104V364.112z M100.761,218.575
		l105.264,55.92v-102.62l-105.264-53.729V218.575z"/>
</g>
<g>
	<polygon fill="#1D93D1" points="270.498,426.486 270.498,159.833 417.518,86.113 417.518,110.059 291.551,174.026 291.551,392.266 
		417.518,329.506 417.518,352.297 	"/>
</g>
<g>
	<polygon fill="#1D93D1" points="287.202,305.081 277.478,285.409 417.518,214.619 417.518,239.291 	"/>
</g>
</svg>
